Patient4_TMGait_0pt7_02_right_42_GRF.mot
version=1
nRows=71
nColumns=19
inDegrees=no
endheader
time	F1x	F1y	F1z	M1x	M1y	M1z	F2x	F2y	F2z	M2x	M2y	M2z	EC1x	EC1y	EC1z	EC2x	EC2y	EC2z
47.54	-27.6249	797.6097	99.4449	-292.8188	-101.7837	748.8231	16.2071	15.9886	14.6525	-1.1092	-9.3155	10.4681	-0.0592	0.0182	-0.0073	-0.0462	0.0165	0.9585
47.5518	-14.7662	788.1028	91.763	-289.7975	-89.3103	735.9788	10.7474	11.7438	9.7493	-0.35771	-6.1396	8.1111	-0.0592	0.0182	-0.0073	-0.0462	0.0165	0.9585
47.5636	-3.2084	776.9587	84.9184	-286.117	-78.0519	720.9496	6.1989	8.0983	5.6079	0.25966	-3.473	6.0295	-0.0592	0.0182	-0.0073	-0.0462	0.0165	0.9585
47.5754	6.4271	764.8732	79.1155	-282.0122	-68.454	704.5978	2.7672	5.3046	2.469	0.72507	-1.4683	4.4186	-0.0592	0.0182	-0.0073	-0.0462	0.0165	0.9585
47.5871	13.9872	752.705	74.4219	-277.7788	-60.6473	687.9991	0.42818	3.3735	0.30269	1.0479	-0.094791	3.3042	-0.0592	0.0182	-0.0073	-0.0462	0.0165	0.9585
47.5989	19.6466	741.2958	70.6052	-273.7207	-54.3653	672.1129	-0.99497	2.1848	-1.0253	1.2504	0.74353	2.6105	-0.0592	0.0182	-0.0073	-0.0462	0.0165	0.9585
47.6107	23.6648	731.3487	67.5732	-270.0838	-49.4365	657.7704	-1.727	1.5368	-1.7166	1.3492	1.1858	2.2165	-0.0592	0.0182	-0.0073	-0.0462	0.0165	0.9585
47.6225	26.3908	723.3367	65.14	-267.039	-45.5677	645.4778	-1.9846	1.2284	-1.9586	1.3593	1.3498	2.0065	-0.0592	0.0182	-0.0073	-0.0462	0.0165	0.9585
47.6343	28.1143	717.4797	63.2877	-264.6604	-42.6318	635.4715	-1.9709	1.048	-1.9233	1.2774	1.3474	1.8252	-0.0592	0.0182	-0.0073	-0.0462	0.0165	0.9585
47.6461	29.1476	713.7195	61.9687	-262.934	-40.4622	627.661	-1.8107	0.79554	-1.7485	1.0881	1.2641	1.503	-0.0592	0.0182	-0.0073	-0.0462	0.0165	0.9585
47.6579	29.7816	711.797	61.1982	-261.7727	-38.9604	621.7473	-1.6135	0.28006	-1.5282	0.7618	1.1582	0.8717	-0.0592	0.0182	-0.0073	-0.0462	0.0165	0.9585
47.6696	30.2897	711.3005	60.961	-261.0443	-38.0038	617.2414	-1.4247	-0.66063	-1.3261	0.26548	1.0647	-0.23226	-0.0592	0.0182	-0.0073	-0.0462	0.0165	0.9585
47.6814	30.9419	711.7974	61.1732	-260.6061	-37.4227	613.648	-1.281	-2.1133	-1.1614	-0.41814	0.98829	-1.882	-0.0592	0.0182	-0.0073	-0.0462	0.0165	0.9585
47.6932	31.9547	712.8802	61.7828	-260.3185	-37.0909	610.5185	-1.1593	-4.0869	-1.0469	-1.2822	0.92604	-4.087	-0.0592	0.0182	-0.0073	-0.0462	0.0165	0.9585
47.705	33.5102	714.2468	62.6902	-260.0717	-36.8557	607.5145	-1.0634	-6.4028	-0.95387	-2.2564	0.84893	-6.6505	-0.0592	0.0182	-0.0073	-0.0462	0.0165	0.9585
47.7168	35.7096	715.7158	63.9111	-259.7931	-36.6887	604.4493	-0.94195	-8.6908	-0.861	-3.1919	0.72324	-9.195	-0.0592	0.0182	-0.0073	-0.0462	0.0165	0.9585
47.7286	38.6351	717.2584	65.4093	-259.4636	-36.5265	601.275	-0.77829	-10.2277	-0.71537	-3.8071	0.49297	-10.935	-0.0592	0.0182	-0.0073	-0.0462	0.0165	0.9585
47.7404	42.2459	718.9316	67.222	-259.0993	-36.3998	598.0721	-0.49954	-9.9411	-0.48975	-3.6764	0.11199	-10.7317	-0.0592	0.0182	-0.0073	-0.0462	0.0165	0.9585
47.7521	46.4995	720.7825	69.2675	-258.7286	-36.2507	594.9262	-0.075355	-6.2621	-0.13676	-2.1842	-0.47029	-6.8659	-0.0592	0.0182	-0.0073	-0.0462	0.0165	0.9585
47.7639	51.2131	722.6937	71.4557	-258.3348	-36.0618	591.8325	0.55893	2.7489	0.36868	1.441	-1.2871	2.783	-0.0592	0.0182	-0.0073	-0.0462	0.0165	0.9585
47.7757	56.2086	724.2793	73.5532	-257.8221	-35.712	588.559	1.3773	19.3617	1.0388	8.0905	-2.3231	20.727	-0.0592	0.0182	-0.0073	-0.0462	0.0165	0.9585
47.7875	61.1977	724.8269	75.2832	-256.9872	-35.0786	584.6472	2.3571	45.7153	1.8451	18.609	-3.504	49.3157	-0.0592	0.0182	-0.0073	-0.0462	0.0165	0.9585
47.7993	65.892	723.2978	76.3057	-255.5149	-34.0043	579.3555	3.3364	83.2809	2.6823	33.5661	-4.6261	90.2153	-0.0592	0.0182	-0.0073	-0.0462	0.0165	0.9585
47.8111	69.9376	718.378	76.3078	-252.9904	-32.373	571.7372	3.9924	131.9149	3.3415	52.8947	-5.316	143.2982	-0.0592	0.0182	-0.0073	-0.0462	0.0165	0.9585
47.8229	73.0866	708.6013	75.0216	-248.9339	-30.0872	560.7049	3.2206	188.9617	3.525	75.5176	-4.8261	205.7187	-0.0592	0.0182	-0.0073	-0.0462	0.0165	0.9585
47.8346	75.0774	692.4291	72.2728	-242.8275	-27.1176	545.1037	-0.60674	248.3492	2.7227	99.0065	-2.0084	270.8648	-0.0592	0.0182	-0.0073	-0.0462	0.0165	0.9585
47.8464	75.7722	668.4563	68.011	-234.1839	-23.5123	523.8555	-7.9068	302.3729	0.13973	120.3163	4.0069	330.3017	-0.0592	0.0182	-0.0073	-0.0462	0.0165	0.9585
47.8582	75.0512	635.7274	62.3585	-222.6463	-19.4344	496.2443	-17.1714	347.3727	-4.0242	138.0115	12.3956	379.748	-0.0592	0.0182	-0.0073	-0.0462	0.0165	0.9585
47.87	72.9177	594.0296	55.6074	-208.0932	-15.1165	462.1082	-27.2247	384.7921	-9.0227	152.6559	21.8747	420.6091	-0.0592	0.0182	-0.0073	-0.0462	0.0165	0.9585
47.8818	69.4205	543.8812	48.2538	-190.647	-10.9063	421.8476	-36.8533	418.2037	-14.1231	165.6807	31.214	456.5612	-0.0592	0.0182	-0.0073	-0.0462	0.0165	0.9585
47.8936	64.6206	486.5493	40.7288	-170.6987	-7.0742	376.4314	-45.2261	451.1277	-18.7113	178.477	39.4474	491.4165	-0.0592	0.0182	-0.0073	-0.0462	0.0165	0.9585
47.9054	58.5055	424.0263	33.4673	-148.9013	-3.9255	327.3818	-51.6983	485.5343	-22.542	191.8266	46.0914	527.2891	-0.0592	0.0182	-0.0073	-0.0462	0.0165	0.9585
47.9171	51.1125	358.92	26.7109	-126.1412	-1.5984	276.6937	-56.2229	521.844	-25.6022	205.8577	51.1277	564.7258	-0.0592	0.0182	-0.0073	-0.0462	0.0165	0.9585
47.9289	42.6452	294.2164	20.7077	-103.457	-0.20644	226.6247	-59.0345	559.205	-28.2963	220.1938	55.0759	602.8732	-0.0592	0.0182	-0.0073	-0.0462	0.0165	0.9585
47.9407	33.6079	232.9861	15.5178	-81.9376	0.39217	179.47	-60.6116	596.4455	-31.1197	234.3086	58.6408	640.6203	-0.0592	0.0182	-0.0073	-0.0462	0.0165	0.9585
47.9525	24.7653	177.7611	11.2353	-62.4959	0.38736	137.062	-61.3898	632.2396	-34.5743	247.6445	62.5065	676.6402	-0.0592	0.0182	-0.0073	-0.0462	0.0165	0.9585
47.9643	16.8378	130.222	7.8354	-45.7432	0.062958	100.6097	-61.8559	665.396	-38.7895	259.7256	66.9825	709.7687	-0.0592	0.0182	-0.0073	-0.0462	0.0165	0.9585
47.9761	10.3084	90.9546	5.262	-31.9084	-0.3688	70.4762	-62.299	694.8621	-43.6203	270.1741	72.0199	738.9161	-0.0592	0.0182	-0.0073	-0.0462	0.0165	0.9585
47.9879	5.2937	59.8011	3.386	-20.9438	-0.76381	46.554	-62.8626	720.0062	-48.6236	278.8022	77.2066	763.4058	-0.0592	0.0182	-0.0073	-0.0462	0.0165	0.9585
47.9996	1.7593	36.0932	2.041	-12.6176	-1.0167	28.3186	-63.4551	740.6221	-53.3462	285.5976	82.0427	782.9598	-0.0592	0.0182	-0.0073	-0.0462	0.0165	0.9585
48.0114	-0.49719	18.9697	1.0974	-6.6204	-1.1031	15.1605	-63.9506	756.8299	-57.4391	290.6582	86.1224	797.6727	-0.0592	0.0182	-0.0073	-0.0462	0.0165	0.9585
48.0232	-1.6351	7.4686	0.45716	-2.6066	-1.018	6.3221	-64.22	768.7189	-60.7745	294.0589	89.2642	807.6135	-0.0592	0.0182	-0.0073	-0.0462	0.0165	0.9585
48.035	-2.0044	0.55454	0.065133	-0.20197	-0.84397	1.0349	-64.1568	776.4113	-63.3376	295.8682	91.4104	812.9043	-0.0592	0.0182	-0.0073	-0.0462	0.0165	0.9585
48.0468	-1.8684	-2.9177	-0.14207	0.99984	-0.63698	-1.6122	-63.6532	780.1194	-65.1595	296.1795	92.5631	813.7632	-0.0592	0.0182	-0.0073	-0.0462	0.0165	0.9585
48.0586	-1.5096	-4.0374	-0.21371	1.3857	-0.45559	-2.4288	-62.6705	780.2176	-66.2999	295.1445	92.7776	810.5961	-0.0592	0.0182	-0.0073	-0.0462	0.0165	0.9585
48.0704	-1.045	-3.755	-0.20701	1.2853	-0.30314	-2.1846	-61.1718	777.373	-66.7927	293.018	92.0971	804.1001	-0.0592	0.0182	-0.0073	-0.0462	0.0165	0.9585
48.0821	-0.62784	-2.7506	-0.14765	0.93603	-0.20553	-1.384	-59.1813	772.4159	-66.7026	290.1154	90.6125	795.135	-0.0592	0.0182	-0.0073	-0.0462	0.0165	0.9585
48.0939	-0.26826	-1.5212	-0.067751	0.50393	-0.14685	-0.44916	-56.7383	766.1804	-66.1261	286.7495	88.4523	784.5677	-0.0592	0.0182	-0.0073	-0.0462	0.0165	0.9585
48.1057	-0.037312	-0.34118	0.020061	0.085498	-0.13114	0.44129	-53.8952	759.3105	-65.2185	283.1595	85.8071	773.0785	-0.0592	0.0182	-0.0073	-0.0462	0.0165	0.9585
48.1175	0.11981	0.64396	0.10129	-0.27008	-0.1361	1.148	-50.7363	752.1828	-64.1025	279.4914	82.8416	761.0667	-0.0592	0.0182	-0.0073	-0.0462	0.0165	0.9585
48.1293	0.16971	1.3924	0.17125	-0.54681	-0.16287	1.6808	-47.2963	745.02	-62.9065	275.8302	79.7102	748.7816	-0.0592	0.0182	-0.0073	-0.0462	0.0165	0.9585
48.1411	0.18436	1.9197	0.22202	-0.74909	-0.19027	2.0343	-43.6177	737.9303	-61.7316	272.2222	76.5312	736.365	-0.0592	0.0182	-0.0073	-0.0462	0.0165	0.9585
48.1529	0.13379	2.265	0.25137	-0.88645	-0.22141	2.2759	-39.7195	730.9617	-60.683	268.692	73.4091	723.8936	-0.0592	0.0182	-0.0073	-0.0462	0.0165	0.9585
48.1646	0.087306	2.4598	0.25805	-0.96941	-0.24215	2.4067	-35.6088	724.1304	-59.8504	265.2505	70.4288	711.4151	-0.0592	0.0182	-0.0073	-0.0462	0.0165	0.9585
48.1764	0.0068397	2.5457	0.25821	-1.0068	-0.27239	2.486	-31.3004	717.3913	-59.2942	261.8905	67.6526	698.911	-0.0592	0.0182	-0.0073	-0.0462	0.0165	0.9585
48.1882	-0.050304	2.5183	0.25651	-0.99804	-0.30022	2.4738	-26.7891	710.7327	-59.0462	258.6177	65.115	686.3889	-0.0592	0.0182	-0.0073	-0.0462	0.0165	0.9585
48.2	-0.12607	2.3901	0.28024	-0.94234	-0.35398	2.3885	-22.0782	704.2331	-59.0847	255.4741	62.8039	673.93	-0.0592	0.0182	-0.0073	-0.0462	0.0165	0.9585
48.2118	-0.17937	2.1031	0.31792	-0.82132	-0.41743	2.1289	-17.1812	698.1227	-59.3454	252.5621	60.6745	661.7426	-0.0592	0.0182	-0.0073	-0.0462	0.0165	0.9585
48.2236	-0.25571	1.5888	0.40108	-0.60688	-0.53435	1.6325	-12.1096	692.853	-59.7196	250.0655	58.6394	650.2283	-0.0592	0.0182	-0.0073	-0.0462	0.0165	0.9585
48.2354	-0.31123	0.75901	0.5107	-0.27126	-0.67944	0.76852	-6.8875	689.0711	-60.0873	248.2386	56.603	639.9667	-0.0592	0.0182	-0.0073	-0.0462	0.0165	0.9585
48.2471	-0.36838	-0.45577	0.67274	0.2114	-0.87846	-0.52626	-1.5582	687.5735	-60.3245	247.3866	54.4592	631.6713	-0.0592	0.0182	-0.0073	-0.0462	0.0165	0.9585
48.2589	-0.36725	-2.0791	0.83424	0.84699	-1.0616	-2.303	3.8309	689.1853	-60.3843	247.8119	52.1705	626.0707	-0.0592	0.0182	-0.0073	-0.0462	0.0165	0.9585
48.2707	-0.30027	-4.0523	0.9799	1.6139	-1.1987	-4.472	9.1816	694.6236	-60.2673	249.7673	49.7553	623.7995	-0.0592	0.0182	-0.0073	-0.0462	0.0165	0.9585
48.2825	-0.096031	-6.1546	1.0052	2.4239	-1.1515	-6.8153	14.3597	704.4095	-60.0807	253.4194	47.3431	625.3229	-0.0592	0.0182	-0.0073	-0.0462	0.0165	0.9585
48.2943	0.28334	-7.9635	0.8246	3.1132	-0.79816	-8.8542	19.1645	718.6887	-59.9486	258.7843	45.098	630.8025	-0.0592	0.0182	-0.0073	-0.0462	0.0165	0.9585
48.3061	0.91908	-8.7693	0.27683	3.3991	0.067954	-9.8033	23.369	736.9965	-60.0216	265.6477	43.2146	639.8934	-0.0592	0.0182	-0.0073	-0.0462	0.0165	0.9585
48.3179	1.8511	-7.4992	-0.78746	2.8592	1.6331	-8.4511	26.8065	758.137	-60.4314	273.5199	41.8503	651.6557	-0.0592	0.0182	-0.0073	-0.0462	0.0165	0.9585
48.3296	3.1158	-2.7013	-2.5508	0.92512	4.1109	-3.1691	29.4803	780.1457	-61.2548	281.6377	41.0595	664.4606	-0.0592	0.0182	-0.0073	-0.0462	0.0165	0.9585
48.3414	4.6767	7.4192	-5.1455	-3.0916	7.6315	8.0698	31.5479	800.6186	-62.494	289.0862	40.7831	676.3042	-0.0592	0.0182	-0.0073	-0.0462	0.0165	0.9585
48.3532	6.3824	24.7882	-8.6111	-9.9245	12.1711	27.4418	33.281	817.0236	-64.0272	294.9318	40.8269	685.0387	-0.0592	0.0182	-0.0073	-0.0462	0.0165	0.9585
48.365	7.9302	51.1088	-12.7916	-20.2072	17.4184	56.8607	34.8811	827.0346	-65.5943	298.3429	40.9112	688.7144	-0.0592	0.0182	-0.0073	-0.0462	0.0165	0.9585
